Coordinates
version=1
nRows=7
nColumns=40
inDegrees=yes

Units are S.I. units (second, meters, Newtons, ...)
Angles are in degrees.

endheader
time	pelvis_tilt	pelvis_list	pelvis_rotation	pelvis_tx	pelvis_ty	pelvis_tz	hip_flexion_r	hip_adduction_r	hip_rotation_r	knee_angle_r	knee_angle_r_beta	ankle_angle_r	subtalar_angle_r	mtp_angle_r	hip_flexion_l	hip_adduction_l	hip_rotation_l	knee_angle_l	knee_angle_l_beta	ankle_angle_l	subtalar_angle_l	mtp_angle_l	lumbar_extension	lumbar_bending	lumbar_rotation	arm_flex_r	arm_add_r	arm_rot_r	elbow_flex_r	pro_sup_r	wrist_flex_r	wrist_dev_r	arm_flex_l	arm_add_l	arm_rot_l	elbow_flex_l	pro_sup_l	wrist_flex_l	wrist_dev_l
      2.60000000	      0.06068315	     -6.86890033	      3.76077190	      0.69849254	      0.88914063	      1.02017962	     15.31709803	      7.76124752	    -19.41295573	    -20.39538559	     -0.35596663	      1.91111519	      0.55139099	     -4.71050116	     -1.59651783	     10.71790455	     10.28589603	    -45.43925010	     -0.79306452	     -9.00963785	      1.13266726	    -15.08928795	     -5.48053933	     12.40997806	     -4.23808699	      5.56110576	    -10.15772205	     16.49747052	     13.44108460	     89.95437384	      0.00000000	      0.00000000	      4.14974934	      7.47019502	    -16.74254116	     15.53312757	     89.95437384	      0.00000000	      0.00000000
      2.61000000	      0.20898595	     -7.13141820	      4.18090042	      0.70502322	      0.88906750	      1.02068526	     14.75235656	      8.15051413	    -19.34372580	    -20.42710995	     -0.35652033	      2.42182098	      0.27573164	     -4.60895806	     -0.29627529	     11.38387807	      9.97226497	    -47.69141830	     -0.83237227	     -7.56708756	      2.85961732	    -14.78117010	     -5.66189050	     12.66478123	     -4.18590548	      5.79914672	    -10.30818384	     16.32900406	     13.69840890	     89.95437384	      0.00000000	      0.00000000	      3.93739935	      7.69094496	    -16.39681663	     15.60125327	     89.95437384	      0.00000000	      0.00000000
      2.62000000	      0.55545764	     -7.26965078	      4.47164302	      0.71149379	      0.88940285	      1.02147440	     14.00436498	      8.42371887	    -19.44016512	    -20.57207146	     -0.35905038	      3.01808829	      0.07285768	     -4.57215800	      0.68896946	     11.91328459	      9.76607412	    -49.58443736	     -0.86541169	     -6.49859582	      4.03811098	    -14.58503959	     -6.10612240	     12.77107598	     -3.91731941	      6.16845295	    -10.38694832	     16.26132836	     13.70668220	     89.95437384	      0.00000000	      0.00000000	      3.95163425	      7.88041512	    -16.11995079	     15.37075633	     89.95437384	      0.00000000	      0.00000000
      2.63000000	      0.84154578	     -7.36235822	      4.78617511	      0.71798288	      0.88969012	      1.02204390	     13.28170603	      8.62218880	    -19.54876556	    -20.63790513	     -0.36019940	      3.49719992	      0.02319946	     -4.53630223	      1.77102377	     12.34595842	      9.47517620	    -51.31191115	     -0.89556180	     -5.50523415	      4.99129619	    -14.39249227	     -6.46009138	     12.82434965	     -3.61748055	      6.45609986	    -10.51892908	     16.14245427	     13.76140528	     89.95437384	      0.00000000	      0.00000000	      3.89976603	      8.09702057	    -15.80943773	     15.41090209	     89.95437384	      0.00000000	      0.00000000
      2.64000000	      1.14616926	     -7.30166516	      5.08100843	      0.72449450	      0.89007515	      1.02252209	     12.52492771	      8.69527655	    -19.46196705	    -20.72506502	     -0.36172062	      4.06866425	     -0.11134981	     -4.49429771	      2.78181555	     12.51528431	      9.10533874	    -52.76444814	     -0.92091335	     -4.65811475	      5.61563506	    -14.23714221	     -6.79974787	     12.72455137	     -3.29107770	      6.75288759	    -10.62259464	     16.03118940	     13.74722231	     89.95437384	      0.00000000	      0.00000000	      3.87463817	      8.28431941	    -15.47844825	     15.39383652	     89.95437384	      0.00000000	      0.00000000
      2.65000000	      1.41012384	     -6.98107203	      5.16532582	      0.73078443	      0.89064835	      1.02313094	     11.85001775	      8.45820117	    -19.39257618	    -20.92667073	     -0.36523931	      4.27380804	     -0.18562908	     -4.42804347	      3.72677245	     12.34059090	      8.93160228	    -53.89046457	     -0.94056604	     -4.38638618	      5.59562087	    -14.04705463	     -7.21643825	     12.30585444	     -2.72320692	      7.00533354	    -10.75508189	     15.97410058	     13.87375930	     89.95437384	      0.00000000	      0.00000000	      3.83925154	      8.55769649	    -15.25009671	     15.63402533	     89.95437384	      0.00000000	      0.00000000
      2.66000000	      1.73272738	     -6.97900602	      5.55687375	      0.73728684	      0.89123070	      1.02361037	     11.03053858	      8.62005565	    -19.34796195	    -20.92038730	     -0.36512964	      5.05222557	     -0.22634427	     -4.44427720	      4.72526825	     12.50576429	      8.39709427	    -54.94123177	     -0.95890539	     -3.49707570	      5.73424727	    -14.06582987	     -7.48751169	     12.26665566	     -2.56014744	      7.43160406	    -10.78009898	     15.92528459	     13.61568494	     89.95437384	      0.00000000	      0.00000000	      3.84852771	      8.76866286	    -14.97495443	     15.56695115	     89.95437384	      0.00000000	      0.00000000
